<?xml version="1.0" encoding="utf-8"?>
<!-- Generator: Adobe Illustrator 26.0.1, SVG Export Plug-In . SVG Version: 6.00 Build 0)  -->
<svg version="1.1" id="Layer_1" xmlns="http://www.w3.org/2000/svg" xmlns:xlink="http://www.w3.org/1999/xlink" x="0px" y="0px"
	 viewBox="0 0 263 235" style="enable-background:new 0 0 263 235;" xml:space="preserve">
<style type="text/css">
	.st0{fill:url(#SVGID_1_);}
	.st1{fill:#9E005D;}
	.st2{fill:#FFFFFF;}
</style>
<g>
	<linearGradient id="SVGID_1_" gradientUnits="userSpaceOnUse" x1="132.0202" y1="217.4827" x2="127.1206" y2="15.5376">
		<stop  offset="0" style="stop-color:#FF00CB"/>
		<stop  offset="0.8307" style="stop-color:#EB23B7"/>
		<stop  offset="1" style="stop-color:#E72BB3"/>
	</linearGradient>
	<path class="st0" d="M161.06,169.5H88.29c-37.38,0-67.79-30.41-67.79-67.79V84.29c0-37.38,30.41-67.79,67.79-67.79h81.42
		c37.38,0,67.79,30.41,67.79,67.79v17.42c0,20.94-9.45,40.37-25.93,53.32l-0.16,0.13l-0.39,0.39l-0.2,0.3
		c-17.12,25.69-31.99,47.28-41.34,60.73L161.06,169.5z"/>
	<path class="st1" d="M169.71,20C205.16,20,234,48.84,234,84.29v17.42c0,19.86-8.96,38.29-24.59,50.57l-0.34,0.27l-0.3,0.3
		l-0.49,0.49l-0.38,0.58c-14.41,21.62-27.21,40.32-36.48,53.71l-6.4-35.85l-1.03-5.77h-5.86H88.29C52.84,166,24,137.16,24,101.71
		V84.29C24,48.84,52.84,20,88.29,20H169.71 M169.71,13H88.29C48.92,13,17,44.92,17,84.29v17.42C17,141.08,48.92,173,88.29,173h69.84
		l9.37,52.5c11.38-16.25,28.04-40.43,46.22-67.71l0.01-0.01c16.61-13.05,27.27-33.31,27.27-56.07V84.29
		C241,44.92,209.08,13,169.71,13L169.71,13z"/>
</g>
<g>
	<rect x="65" y="80.2" class="st2" width="25.6" height="25.6"/>
</g>
<g>
	<rect x="116.2" y="80.2" class="st2" width="25.6" height="25.6"/>
</g>
<g>
	<rect x="167.4" y="80.2" class="st2" width="25.6" height="25.6"/>
</g>
</svg>
